<svg xmlns="http://www.w3.org/2000/svg" viewBox="0 0 720 900"><defs><linearGradient id="b" x2="1" y2="1"><stop stop-color="#070b18"/><stop offset="1" stop-color="#17365c"/></linearGradient></defs><rect width="720" height="900" fill="url(#b)"/><g stroke="#4fd9e8" opacity=".3"><path d="M0 90h350l65 80h305M0 760h300l100-95h320"/><path d="M100 0v190M630 0v230M80 680v220M600 700v200"/></g><ellipse cx="360" cy="340" rx="150" ry="190" fill="#c68f79"/><path d="M202 328q13-224 169-225q117 9 155 158q-120-52-286 55" fill="#0c1119"/><path d="M231 227q77-110 242-89q-79 12-124 72q84-60 160-21" stroke="#181e28" stroke-width="38" fill="none" stroke-linecap="round"/><path d="M280 361q42-20 81 0M415 361q39-22 73 1" stroke="#17171c" stroke-width="11" fill="none"/><ellipse cx="327" cy="376" rx="15" ry="9" fill="#ff364f"/><ellipse cx="455" cy="376" rx="15" ry="9" fill="#ff364f"/><path d="M344 478q55 18 98-5" stroke="#673c3d" stroke-width="8" fill="none"/><path d="M140 900q24-269 220-283q198 17 220 283" fill="#0a1729"/><path d="M294 633l66 92l72-92l40 267H248z" fill="#182b48"/><path d="M360 617v283" stroke="#7b9ab9" stroke-width="5"/><circle cx="550" cy="774" r="75" fill="none" stroke="#43bde1" stroke-width="7"/><path d="M550 718v112M494 774h112" stroke="#79e8ff" stroke-width="5" opacity=".7"/></svg>
